#define fe8f06e991f448c2fe8be4e3364464fd_width 32
#define fe8f06e991f448c2fe8be4e3364464fd_height 32
static char fe8f06e991f448c2fe8be4e3364464fd_bits[] = {
  0x00, 0x00, 0x00, 0x00, 0x00, 0x00, 0x00, 0x00, 0x00, 0x00, 0x00, 0x00, 
  0x00, 0x00, 0x00, 0x00, 0x00, 0x00, 0x00, 0x00, 0x00, 0x18, 0x18, 0x00, 
  0x00, 0x3C, 0x3C, 0x00, 0x00, 0x7E, 0x7E, 0x00, 0x00, 0x7E, 0x7E, 0x00, 
  0x00, 0x3C, 0x3C, 0x00, 0x00, 0x18, 0x18, 0x00, 0x00, 0x00, 0x00, 0x00, 
  0x00, 0x00, 0x00, 0x00, 0x00, 0x18, 0x18, 0x00, 0x00, 0x3C, 0x3C, 0x00, 
  0x00, 0x7E, 0x7E, 0x00, 0x00, 0x7E, 0x7E, 0x00, 0x00, 0x3C, 0x3C, 0x00, 
  0x00, 0x18, 0x18, 0x00, 0x00, 0x00, 0x00, 0x00, 0x00, 0x00, 0x00, 0x00, 
  0x00, 0x18, 0x18, 0x00, 0x00, 0x3C, 0x3C, 0x00, 0x00, 0x7E, 0x7E, 0x00, 
  0x00, 0x7E, 0x7E, 0x00, 0x00, 0x3C, 0x3C, 0x00, 0x00, 0x18, 0x18, 0x00, 
  0x00, 0x00, 0x00, 0x00, 0x00, 0x00, 0x00, 0x00, 0x00, 0x00, 0x00, 0x00, 
  0x00, 0x00, 0x00, 0x00, 0x00, 0x00, 0x00, 0x00, };
